<?xml version="1.0" encoding="utf-8"?>
<!-- Generator: Adobe Illustrator 16.0.0, SVG Export Plug-In . SVG Version: 6.00 Build 0)  -->
<!DOCTYPE svg PUBLIC "-//W3C//DTD SVG 1.1//EN" "http://www.w3.org/Graphics/SVG/1.1/DTD/svg11.dtd">
<svg version="1.1" id="圖層_1" xmlns:serif="http://www.serif.com/"
	 xmlns="http://www.w3.org/2000/svg" xmlns:xlink="http://www.w3.org/1999/xlink" x="0px" y="0px" width="1024px" height="1024px"
	 viewBox="0 0 1024 1024" enable-background="new 0 0 1024 1024" xml:space="preserve">
<rect y="0" serif:id="Page 9" fill="none" width="1024" height="1024">
</rect>
<path d="M512,51.2C257.679,51.2,51.2,257.679,51.2,512c0,254.321,206.479,460.802,460.8,460.802
	c254.32,0,460.8-206.479,460.8-460.802C972.8,257.679,766.32,51.2,512,51.2z M512,742.318
	c-177.94,0-322.406-144.466-322.406-322.406C189.594,241.981,334.06,97.515,512,97.515s322.406,144.466,322.406,322.396
	C834.406,597.852,689.94,742.318,512,742.318z"/>
<circle cx="512" cy="350.71" r="207.208"/>
</svg>
